<mxfile host="65bd71144e">
    <diagram id="D8JqqXFrWi4FFZ6HWPCq" name="ページ1">
        <mxGraphModel dx="1674" dy="679" grid="1" gridSize="10" guides="1" tooltips="1" connect="1" arrows="1" fold="1" page="1" pageScale="1" pageWidth="827" pageHeight="1169" math="0" shadow="0">
            <root>
                <mxCell id="0"/>
                <mxCell id="1" parent="0"/>
                <mxCell id="16" value="CraftBeerBarDataBase" style="rounded=1;whiteSpace=wrap;fontSize=12;arcSize=8;verticalAlign=top;" parent="1" vertex="1">
                    <mxGeometry x="177.5" y="70" width="302.5" height="540" as="geometry"/>
                </mxCell>
                <mxCell id="9" value="一般ユーザ" style="shape=umlActor;verticalLabelPosition=bottom;verticalAlign=top;outlineConnect=0;fontSize=12;" parent="1" vertex="1">
                    <mxGeometry x="-30" y="140" width="30" height="60" as="geometry"/>
                </mxCell>
                <mxCell id="19" value="" style="endArrow=none;html=1;fontSize=12;entryX=0;entryY=0.5;entryDx=0;entryDy=0;elbow=vertical;" parent="1" target="43" edge="1">
                    <mxGeometry width="50" height="50" relative="1" as="geometry">
                        <mxPoint x="20" y="170" as="sourcePoint"/>
                        <mxPoint x="235" y="583" as="targetPoint"/>
                    </mxGeometry>
                </mxCell>
                <mxCell id="26" value="" style="endArrow=none;html=1;fontSize=12;entryX=0;entryY=0.5;entryDx=0;entryDy=0;elbow=vertical;" parent="1" target="40" edge="1">
                    <mxGeometry width="50" height="50" relative="1" as="geometry">
                        <mxPoint x="20" y="170" as="sourcePoint"/>
                        <mxPoint x="235" y="290" as="targetPoint"/>
                    </mxGeometry>
                </mxCell>
                <mxCell id="35" value="トップ画面を閲覧する" style="ellipse;fontSize=12;whiteSpace=wrap;html=1;" parent="1" vertex="1">
                    <mxGeometry x="236.25" y="135" width="185" height="70" as="geometry"/>
                </mxCell>
                <mxCell id="37" value="" style="endArrow=none;html=1;fontSize=12;entryX=0;entryY=0.5;entryDx=0;entryDy=0;elbow=vertical;" parent="1" target="35" edge="1">
                    <mxGeometry width="50" height="50" relative="1" as="geometry">
                        <mxPoint x="20" y="170" as="sourcePoint"/>
                        <mxPoint x="245" y="488" as="targetPoint"/>
                    </mxGeometry>
                </mxCell>
                <mxCell id="40" value="エリアでお店を絞る" style="ellipse;fontSize=12;whiteSpace=wrap;html=1;" vertex="1" parent="1">
                    <mxGeometry x="236.25" y="220" width="185" height="70" as="geometry"/>
                </mxCell>
                <mxCell id="41" value="タップ数でお店を並べ変える" style="ellipse;fontSize=12;whiteSpace=wrap;html=1;" vertex="1" parent="1">
                    <mxGeometry x="236.25" y="310" width="185" height="70" as="geometry"/>
                </mxCell>
                <mxCell id="42" value="" style="endArrow=none;html=1;fontSize=12;entryX=0;entryY=0.5;entryDx=0;entryDy=0;elbow=vertical;" edge="1" parent="1" target="41">
                    <mxGeometry width="50" height="50" relative="1" as="geometry">
                        <mxPoint x="20" y="170" as="sourcePoint"/>
                        <mxPoint x="246.25" y="275" as="targetPoint"/>
                    </mxGeometry>
                </mxCell>
                <mxCell id="43" value="お店の詳細画面を閲覧する" style="ellipse;fontSize=12;whiteSpace=wrap;html=1;" vertex="1" parent="1">
                    <mxGeometry x="236.25" y="400" width="185" height="70" as="geometry"/>
                </mxCell>
                <mxCell id="47" value="システム管理者" style="shape=umlActor;verticalLabelPosition=bottom;verticalAlign=top;outlineConnect=0;fontSize=12;" vertex="1" parent="1">
                    <mxGeometry x="-30" y="510" width="30" height="60" as="geometry"/>
                </mxCell>
                <mxCell id="48" value="お店の詳細ページを追加する" style="ellipse;fontSize=12;whiteSpace=wrap;html=1;" vertex="1" parent="1">
                    <mxGeometry x="236.25" y="500" width="185" height="70" as="geometry"/>
                </mxCell>
                <mxCell id="49" value="" style="endArrow=none;html=1;fontSize=12;entryX=0;entryY=0.5;entryDx=0;entryDy=0;elbow=vertical;" edge="1" parent="1" target="48">
                    <mxGeometry width="50" height="50" relative="1" as="geometry">
                        <mxPoint x="10" y="535" as="sourcePoint"/>
                        <mxPoint x="246.25" y="445" as="targetPoint"/>
                    </mxGeometry>
                </mxCell>
            </root>
        </mxGraphModel>
    </diagram>
</mxfile>